<svg width="79" height="83" viewBox="0 0 79 83" fill="none" xmlns="http://www.w3.org/2000/svg">
<path d="M24 62H12.8C12.8 59.4 15.3 57.3 18.4 57.3C21.5 57.3 24 59.4 24 62ZM65.2001 62H54C54 59.4 56.5 57.3 59.6 57.3C62.7 57.3 65.2001 59.4 65.2001 62ZM25.59 3.75801L26.226 3.12201L42.1291 19.038L41.4921 19.674L25.59 3.75801Z" fill="#3E4347"/>
<path d="M26.0001 4.8C26.7733 4.8 27.4001 4.1732 27.4001 3.4C27.4001 2.6268 26.7733 2 26.0001 2C25.2269 2 24.6001 2.6268 24.6001 3.4C24.6001 4.1732 25.2269 4.8 26.0001 4.8Z" fill="#3E4347"/>
<path d="M35.78 19.017L51.689 3.10699L52.325 3.74399L36.415 19.654L35.78 19.017Z" fill="#3E4347"/>
<path d="M52.0001 4.8C52.7733 4.8 53.4001 4.1732 53.4001 3.4C53.4001 2.6268 52.7733 2 52.0001 2C51.2269 2 50.6001 2.6268 50.6001 3.4C50.6001 4.1732 51.2269 4.8 52.0001 4.8Z" fill="#3E4347"/>
<path d="M39 19.8C43.4183 19.8 47 17.6958 47 15.1C47 12.5043 43.4183 10.4 39 10.4C34.5817 10.4 31 12.5043 31 15.1C31 17.6958 34.5817 19.8 39 19.8Z" fill="#3E4347"/>
<path d="M66.0999 57.1C60.8999 63.7 18.6 63.5 12.4 57.1C7.79995 52.4 7.79995 24.6 12.4 19.9C18.6 13.5 60.8999 13.3 66.0999 19.9C69.9999 24.9 69.9999 52.2 66.0999 57.1Z" fill="#C28FEF"/>
<path d="M56.5 52.7C52.6 57.7 20.9 57.6 16.2 52.7C12.8 49.1 12.8 28 16.2 24.5C20.9 19.6 52.6 19.5 56.5 24.5C59.4 28.2 59.4 49 56.5 52.7Z" fill="#3E4347"/>
<path d="M63.4 32C64.9464 32 66.2 30.7464 66.2 29.2C66.2 27.6536 64.9464 26.4 63.4 26.4C61.8536 26.4 60.6 27.6536 60.6 29.2C60.6 30.7464 61.8536 32 63.4 32Z" fill="#3E4347"/>
<path d="M63.4 40.4C64.9464 40.4 66.2 39.1464 66.2 37.6C66.2 36.0536 64.9464 34.8 63.4 34.8C61.8536 34.8 60.6 36.0536 60.6 37.6C60.6 39.1464 61.8536 40.4 63.4 40.4Z" fill="#3E4347"/>
<path d="M7.86914 71.6133L7.52344 71.8418C7.3125 71.5293 7.03711 71.2832 6.69727 71.1035C6.36133 70.9199 5.99609 70.8281 5.60156 70.8281C4.96094 70.8281 4.41406 71.0547 3.96094 71.5078C3.50781 71.9609 3.28125 72.5078 3.28125 73.1484C3.28125 73.7891 3.50781 74.3359 3.96094 74.7891C4.41406 75.2422 4.96094 75.4688 5.60156 75.4688C5.99609 75.4688 6.36133 75.377 6.69727 75.1934C7.03711 75.0098 7.3125 74.7617 7.52344 74.4492L7.86328 74.6953C7.61328 75.0625 7.28906 75.3535 6.89062 75.5684C6.49219 75.7832 6.0625 75.8906 5.60156 75.8906C5.23047 75.8906 4.875 75.8184 4.53516 75.6738C4.19922 75.5293 3.9082 75.334 3.66211 75.0879C3.41602 74.8418 3.2207 74.5508 3.07617 74.2148C2.93164 73.875 2.85938 73.5195 2.85938 73.1484C2.85938 72.7773 2.93164 72.4238 3.07617 72.0879C3.2207 71.748 3.41602 71.4551 3.66211 71.209C3.9082 70.9629 4.19922 70.7676 4.53516 70.623C4.875 70.4785 5.23047 70.4062 5.60156 70.4062C6.06641 70.4062 6.49805 70.5156 6.89648 70.7344C7.29492 70.9492 7.61914 71.2422 7.86914 71.6133ZM8.56641 71.1328L8.21484 71.3613C7.92578 70.9395 7.55078 70.6055 7.08984 70.3594C6.63281 70.1094 6.13672 69.9844 5.60156 69.9844C5.02734 69.9844 4.49805 70.127 4.01367 70.4121C3.5293 70.6934 3.14453 71.0762 2.85938 71.5605C2.57812 72.0449 2.4375 72.5742 2.4375 73.1484C2.4375 73.7227 2.57812 74.252 2.85938 74.7363C3.14453 75.2207 3.5293 75.6055 4.01367 75.8906C4.49805 76.1719 5.02734 76.3125 5.60156 76.3125C6.13672 76.3125 6.63477 76.1875 7.0957 75.9375C7.55664 75.6875 7.93164 75.3496 8.2207 74.9238L8.56641 75.1641C8.23828 75.6484 7.8125 76.0312 7.28906 76.3125C6.76953 76.5938 6.20703 76.7344 5.60156 76.7344C4.95312 76.7344 4.35352 76.5742 3.80273 76.2539C3.25195 75.9336 2.81641 75.498 2.49609 74.9473C2.17578 74.3965 2.01562 73.7969 2.01562 73.1484C2.01562 72.5 2.17578 71.9004 2.49609 71.3496C2.81641 70.7988 3.25195 70.3633 3.80273 70.043C4.35352 69.7227 4.95312 69.5625 5.60156 69.5625C6.20703 69.5625 6.76953 69.7031 7.28906 69.9844C7.8125 70.2656 8.23828 70.6484 8.56641 71.1328ZM9.26953 70.6641L8.91797 70.8926C8.55078 70.3535 8.07422 69.9277 7.48828 69.6152C6.90625 69.2988 6.27734 69.1406 5.60156 69.1406C5.05859 69.1406 4.53906 69.2461 4.04297 69.457C3.54688 69.668 3.11914 69.9531 2.75977 70.3125C2.4043 70.668 2.12109 71.0938 1.91016 71.5898C1.69922 72.0859 1.59375 72.6055 1.59375 73.1484C1.59375 73.6914 1.69922 74.2109 1.91016 74.707C2.12109 75.2031 2.4043 75.6309 2.75977 75.9902C3.11914 76.3457 3.54688 76.6289 4.04297 76.8398C4.53906 77.0508 5.05859 77.1562 5.60156 77.1562C6.28125 77.1562 6.91211 76.998 7.49414 76.6816C8.07617 76.3652 8.55078 75.9375 8.91797 75.3984L9.25781 75.6504C8.85156 76.2441 8.32617 76.7148 7.68164 77.0625C7.04102 77.4062 6.34766 77.5781 5.60156 77.5781C4.80078 77.5781 4.06055 77.3809 3.38086 76.9863C2.70117 76.5879 2.16211 76.0488 1.76367 75.3691C1.36914 74.6895 1.17188 73.9492 1.17188 73.1484C1.17188 72.3477 1.36914 71.6074 1.76367 70.9277C2.16211 70.248 2.70117 69.7109 3.38086 69.3164C4.06055 68.918 4.80078 68.7188 5.60156 68.7188C6.35156 68.7188 7.04883 68.8945 7.69336 69.2461C8.33789 69.5938 8.86328 70.0664 9.26953 70.6641ZM9.96094 70.1836L9.60938 70.4121C9.16406 69.7598 8.58789 69.2441 7.88086 68.8652C7.17773 68.4863 6.41797 68.2969 5.60156 68.2969C4.94531 68.2969 4.31641 68.4258 3.71484 68.6836C3.11719 68.9375 2.60156 69.2812 2.16797 69.7148C1.73438 70.1484 1.38867 70.666 1.13086 71.2676C0.876953 71.8652 0.75 72.4922 0.75 73.1484C0.75 73.8047 0.876953 74.4336 1.13086 75.0352C1.38867 75.6328 1.73438 76.1484 2.16797 76.582C2.60156 77.0156 3.11719 77.3613 3.71484 77.6191C4.31641 77.873 4.94531 78 5.60156 78C6.41797 78 7.17969 77.8086 7.88672 77.4258C8.59375 77.043 9.16992 76.5254 9.61523 75.873L9.95508 76.1309C9.4707 76.834 8.8457 77.3926 8.08008 77.8066C7.31445 78.2168 6.48828 78.4219 5.60156 78.4219C4.88672 78.4219 4.20312 78.2812 3.55078 78C2.90234 77.7227 2.3418 77.3496 1.86914 76.8809C1.40039 76.4082 1.02539 75.8477 0.744141 75.1992C0.466797 74.5469 0.328125 73.8633 0.328125 73.1484C0.328125 72.4336 0.466797 71.752 0.744141 71.1035C1.02539 70.4512 1.40039 69.8906 1.86914 69.4219C2.3418 68.9492 2.90234 68.5742 3.55078 68.2969C4.20312 68.0156 4.88672 67.875 5.60156 67.875C6.49219 67.875 7.32031 68.082 8.08594 68.4961C8.85156 68.9102 9.47656 69.4727 9.96094 70.1836ZM13.3066 69.5625H13.7285V78H13.3066V69.5625ZM12.4629 69.5625H12.8848V78H12.4629V69.5625ZM11.6191 69.5625H12.041V78H11.6191V69.5625ZM10.7754 69.5625H11.1973V78H10.7754V69.5625ZM21.4863 74.5957L21.0645 73.8281V69.5625H21.4863V74.5957ZM22.3301 76.0547L21.9082 75.3398V69.5625H22.3301V76.0547ZM16.5176 72.9668L16.9395 73.7344V78H16.5176V72.9668ZM15.6738 71.4492L16.0957 72.2227V78H15.6738V71.4492ZM15.8203 69.5625H16.3125L21.1992 78H20.707L15.8203 69.5625ZM16.8164 69.5625H17.3145L22.1953 78H21.6914L16.8164 69.5625ZM17.8066 69.5625H18.2988L22.752 77.2676V69.5625H23.1738V78H22.6758L17.8066 69.5625ZM15.252 70.2891V78H14.8301V69.5625H15.334L20.2031 78H19.7168L15.252 70.2891ZM26.3848 78H25.9629V69.5625H26.3848V78ZM25.541 78H25.1191V69.5625H25.541V78ZM24.6973 78H24.2754V69.5625H24.6973V78ZM27.2285 75.8906H31.2656V76.3125H27.2285V76.7344H31.2656V77.1562H27.2285V77.5781H31.2656V78H26.8066V69.5625H31.2656V69.9844H27.2285V70.4062H31.2656V70.8281H27.2285V71.25H31.2656V71.6719H27.2285V72.7207H31.0312V73.1426H27.2285V73.5645H31.0312V73.9863H27.2285V74.4082H31.0312V74.8301H27.2285V75.8906ZM37.6699 72.7266V78H37.248V72.7266C37.248 72.6133 37.2285 72.5176 37.1895 72.4395C37.1543 72.3574 37.1074 72.2949 37.0488 72.252C36.9902 72.209 36.9121 72.1758 36.8145 72.1523C36.7207 72.125 36.6289 72.1094 36.5391 72.1055C36.4492 72.0977 36.3379 72.0938 36.2051 72.0938C36.0723 72.0938 35.9609 72.0977 35.8711 72.1055C35.7812 72.1094 35.6875 72.125 35.5898 72.1523C35.4961 72.1758 35.4199 72.209 35.3613 72.252C35.3027 72.2949 35.2539 72.3574 35.2148 72.4395C35.1797 72.5176 35.1621 72.6133 35.1621 72.7266V78H34.7402V72.7266C34.7402 72.0234 35.2285 71.6719 36.2051 71.6719C37.1816 71.6719 37.6699 72.0234 37.6699 72.7266ZM38.5137 72.7266V78H38.0918V72.7266C38.0918 72.2305 37.916 71.8613 37.5645 71.6191C37.2168 71.373 36.7637 71.25 36.2051 71.25C35.6465 71.25 35.1914 71.373 34.8398 71.6191C34.4922 71.8613 34.3184 72.2305 34.3184 72.7266V78H33.8965V72.7266C33.8965 72.3164 34.002 71.9648 34.2129 71.6719C34.4238 71.3789 34.6992 71.166 35.0391 71.0332C35.3828 70.8965 35.7715 70.8281 36.2051 70.8281C36.6387 70.8281 37.0254 70.8965 37.3652 71.0332C37.709 71.166 37.9863 71.3789 38.1973 71.6719C38.4082 71.9648 38.5137 72.3164 38.5137 72.7266ZM39.3574 72.7266V78H38.9355V72.7266C38.9355 72.3594 38.8633 72.0273 38.7188 71.7305C38.5781 71.4336 38.3828 71.1895 38.1328 70.998C37.8828 70.8066 37.5938 70.6602 37.2656 70.5586C36.9375 70.457 36.584 70.4062 36.2051 70.4062C35.8262 70.4062 35.4727 70.457 35.1445 70.5586C34.8164 70.6602 34.5273 70.8066 34.2773 70.998C34.0273 71.1895 33.8301 71.4336 33.6855 71.7305C33.5449 72.0273 33.4746 72.3594 33.4746 72.7266V78H33.0527V72.7266C33.0527 72.3008 33.1348 71.9141 33.2988 71.5664C33.4668 71.2188 33.6934 70.9316 33.9785 70.7051C34.2637 70.4746 34.5977 70.2969 34.9805 70.1719C35.3633 70.0469 35.7715 69.9844 36.2051 69.9844C36.6387 69.9844 37.0469 70.0469 37.4297 70.1719C37.8125 70.2969 38.1465 70.4746 38.4316 70.7051C38.7168 70.9316 38.9414 71.2188 39.1055 71.5664C39.2734 71.9141 39.3574 72.3008 39.3574 72.7266ZM40.2012 78H39.7793V72.7266C39.7793 72.3008 39.6836 71.8926 39.4922 71.502C39.3047 71.1113 39.0508 70.7754 38.7305 70.4941C38.4102 70.209 38.0293 69.9824 37.5879 69.8145C37.1465 69.6465 36.6855 69.5625 36.2051 69.5625C35.5449 69.5625 34.9453 69.6875 34.4062 69.9375C33.8711 70.1836 33.4414 70.5508 33.1172 71.0391C32.793 71.5234 32.6309 72.0859 32.6309 72.7266V78H32.209V72.7266C32.209 72.1875 32.3145 71.6914 32.5254 71.2383C32.7363 70.7852 33.0215 70.4062 33.3809 70.1016C33.7441 69.7969 34.168 69.5605 34.6523 69.3926C35.1406 69.2246 35.6582 69.1406 36.2051 69.1406C37.1738 69.1406 38.0137 69.3848 38.7246 69.873C39.4355 69.3848 40.2754 69.1406 41.2441 69.1406C41.791 69.1406 42.3066 69.2246 42.791 69.3926C43.2793 69.5605 43.7031 69.7969 44.0625 70.1016C44.4258 70.4062 44.7129 70.7852 44.9238 71.2383C45.1348 71.6914 45.2402 72.1875 45.2402 72.7266V78H44.8184V72.7266C44.8184 72.0898 44.6562 71.5293 44.332 71.0449C44.0078 70.5566 43.5762 70.1875 43.0371 69.9375C42.502 69.6875 41.9043 69.5625 41.2441 69.5625C40.416 69.5625 39.6934 69.7578 39.0762 70.1484C39.166 70.2266 39.2656 70.3281 39.375 70.4531C39.9102 70.1406 40.5332 69.9844 41.2441 69.9844C41.6777 69.9844 42.0859 70.0469 42.4688 70.1719C42.8516 70.2969 43.1855 70.4746 43.4707 70.7051C43.7559 70.9316 43.9805 71.2188 44.1445 71.5664C44.3125 71.9141 44.3965 72.3008 44.3965 72.7266V78H43.9746V72.7266C43.9746 72.3594 43.9023 72.0273 43.7578 71.7305C43.6172 71.4336 43.4219 71.1895 43.1719 70.998C42.9219 70.8066 42.6328 70.6602 42.3047 70.5586C41.9766 70.457 41.623 70.4062 41.2441 70.4062C40.623 70.4062 40.0859 70.5332 39.6328 70.7871C39.7031 70.8965 39.7734 71.0176 39.8438 71.1504C40.2266 70.9355 40.6934 70.8281 41.2441 70.8281C41.6777 70.8281 42.0645 70.8965 42.4043 71.0332C42.748 71.166 43.0254 71.3789 43.2363 71.6719C43.4473 71.9648 43.5527 72.3164 43.5527 72.7266V78H43.1309V72.7266C43.1309 72.2305 42.9551 71.8613 42.6035 71.6191C42.2559 71.373 41.8027 71.25 41.2441 71.25C40.7363 71.25 40.3242 71.3438 40.0078 71.5312C40.0586 71.6797 40.0977 71.8203 40.125 71.9531C40.3711 71.7656 40.7441 71.6719 41.2441 71.6719C42.2207 71.6719 42.709 72.0234 42.709 72.7266V78H42.2871V72.7266C42.2871 72.6133 42.2676 72.5176 42.2285 72.4395C42.1934 72.3574 42.1465 72.2949 42.0879 72.252C42.0293 72.209 41.9512 72.1758 41.8535 72.1523C41.7598 72.125 41.668 72.1094 41.5781 72.1055C41.4883 72.0977 41.377 72.0938 41.2441 72.0938C41.1113 72.0938 41 72.0977 40.9102 72.1055C40.8203 72.1094 40.7266 72.125 40.6289 72.1523C40.5352 72.1758 40.459 72.209 40.4004 72.252C40.3418 72.2949 40.293 72.3574 40.2539 72.4395C40.2188 72.5176 40.2012 72.6133 40.2012 72.7266V78ZM52.2832 73.8398C52.2832 73.3398 52.1289 72.9531 51.8203 72.6797C51.5117 72.4062 51.1035 72.2695 50.5957 72.2695C50.166 72.2695 49.7969 72.418 49.4883 72.7148C49.1797 73.0117 49.0254 73.3672 49.0254 73.7812C49.0254 74.0156 49.0566 74.2266 49.1191 74.4141C49.1816 74.5977 49.2656 74.752 49.3711 74.877C49.4805 74.998 49.6094 75.0996 49.7578 75.1816C49.9062 75.2598 50.0605 75.3164 50.2207 75.3516C50.3848 75.3867 50.5586 75.4043 50.7422 75.4043C51.1875 75.4043 51.5938 75.2949 51.9609 75.0762V75.498C51.582 75.6973 51.1738 75.7969 50.7363 75.7969C50.4551 75.7969 50.1895 75.7598 49.9395 75.6855C49.6934 75.6074 49.4688 75.4922 49.2656 75.3398C49.0625 75.1836 48.9004 74.9727 48.7793 74.707C48.6621 74.4375 48.6035 74.1289 48.6035 73.7812C48.6035 73.2422 48.793 72.7852 49.1719 72.4102C49.5508 72.0352 50.0254 71.8477 50.5957 71.8477C51.2246 71.8477 51.7324 72.0254 52.1191 72.3809C52.5098 72.7324 52.7051 73.2188 52.7051 73.8398V78H52.2832V73.8398ZM53.5488 73.8398V78H53.127V73.8398C53.127 73.1016 52.8906 72.5156 52.418 72.082C51.9453 71.6445 51.3379 71.4258 50.5957 71.4258C49.9082 71.4258 49.334 71.6543 48.873 72.1113C48.4121 72.5684 48.1816 73.125 48.1816 73.7812C48.1816 74.1797 48.25 74.5371 48.3867 74.8535C48.5273 75.1699 48.7168 75.4238 48.9551 75.6152C49.1934 75.8066 49.459 75.9531 49.752 76.0547C50.0488 76.1523 50.3613 76.2012 50.6895 76.2012C51.1348 76.2012 51.5586 76.0977 51.9609 75.8906V76.3359C51.5391 76.5117 51.1133 76.5996 50.6836 76.5996C50.2969 76.5996 49.9297 76.541 49.582 76.4238C49.2344 76.3027 48.9238 76.1289 48.6504 75.9023C48.377 75.6719 48.1602 75.375 48 75.0117C47.8398 74.6445 47.7598 74.2344 47.7598 73.7812C47.7598 73.0117 48.0312 72.3574 48.5742 71.8184C49.1211 71.2754 49.7949 71.0039 50.5957 71.0039C51.1582 71.0039 51.6621 71.1191 52.1074 71.3496C52.5527 71.5762 52.9043 71.9062 53.1621 72.3398C53.4199 72.7734 53.5488 73.2734 53.5488 73.8398ZM54.3926 73.8398V78H53.9707V73.8398C53.9707 73.1953 53.8223 72.625 53.5254 72.1289C53.2324 71.6289 52.8301 71.2461 52.3184 70.9805C51.8066 70.7148 51.2324 70.582 50.5957 70.582C49.9902 70.582 49.4375 70.7266 48.9375 71.0156C48.4375 71.3008 48.0449 71.6875 47.7598 72.1758C47.4785 72.6641 47.3379 73.1992 47.3379 73.7812C47.3379 74.2812 47.4297 74.7383 47.6133 75.1523C47.7969 75.5625 48.043 75.9004 48.3516 76.166C48.6641 76.4316 49.0176 76.6387 49.4121 76.7871C49.8105 76.9316 50.2266 77.0039 50.6602 77.0039C51.1016 77.0039 51.5352 76.9121 51.9609 76.7285V77.1562C51.5156 77.3242 51.0781 77.4082 50.6484 77.4082C49.9727 77.4082 49.3516 77.2559 48.7852 76.9512C48.2188 76.6465 47.7656 76.2148 47.4258 75.6562C47.0859 75.0977 46.916 74.4727 46.916 73.7812C46.916 73.2891 47.0098 72.8203 47.1973 72.375C47.3887 71.9297 47.6465 71.5449 47.9707 71.2207C48.2949 70.8965 48.6855 70.6387 49.1426 70.4473C49.5996 70.2559 50.084 70.1602 50.5957 70.1602C51.3105 70.1602 51.9551 70.3125 52.5293 70.6172C53.1074 70.9219 53.5625 71.3555 53.8945 71.918C54.2266 72.4805 54.3926 73.1211 54.3926 73.8398ZM55.2363 73.8398V78H54.8145V73.8398C54.8145 73.043 54.6289 72.332 54.2578 71.707C53.8867 71.0781 53.3809 70.5938 52.7402 70.2539C52.0996 69.9102 51.3848 69.7383 50.5957 69.7383C49.8379 69.7383 49.1445 69.9199 48.5156 70.2832C47.8867 70.6465 47.3926 71.1387 47.0332 71.7598C46.6738 72.377 46.4941 73.0508 46.4941 73.7812C46.4941 74.2617 46.5703 74.7188 46.7227 75.1523C46.8789 75.582 47.0898 75.959 47.3555 76.2832C47.625 76.6035 47.9336 76.8809 48.2812 77.1152C48.6328 77.3496 49.0098 77.5273 49.4121 77.6484C49.8184 77.7695 50.2305 77.8301 50.6484 77.8301C51.1094 77.8301 51.5469 77.7422 51.9609 77.5664V78C51.5273 78.1523 51.082 78.2285 50.625 78.2285C50.1523 78.2285 49.6914 78.1621 49.2422 78.0293C48.7969 77.8965 48.3828 77.7012 48 77.4434C47.6211 77.1816 47.2871 76.875 46.998 76.5234C46.709 76.168 46.4824 75.7539 46.3184 75.2812C46.1543 74.8086 46.0723 74.3086 46.0723 73.7812C46.0723 73.1758 46.1855 72.5996 46.4121 72.0527C46.6426 71.502 46.9551 71.0273 47.3496 70.6289C47.748 70.2266 48.2285 69.9082 48.791 69.6738C49.3574 69.4355 49.959 69.3164 50.5957 69.3164C51.2441 69.3164 51.8535 69.4258 52.4238 69.6445C52.9941 69.8633 53.4863 70.168 53.9004 70.5586C54.3145 70.9453 54.6406 71.4219 54.8789 71.9883C55.1172 72.5547 55.2363 73.1719 55.2363 73.8398ZM62.2148 73.7227H62.6367V78C62.0117 78.2812 61.3652 78.4219 60.6973 78.4219C60.0684 78.4219 59.4668 78.2988 58.8926 78.0527C58.3223 77.8066 57.8301 77.4766 57.416 77.0625C57.002 76.6484 56.6719 76.1562 56.4258 75.5859C56.1797 75.0117 56.0566 74.4102 56.0566 73.7812C56.0566 73.1523 56.1797 72.5527 56.4258 71.9824C56.6719 71.4082 57.002 70.9141 57.416 70.5C57.8301 70.0859 58.3223 69.7559 58.8926 69.5098C59.4668 69.2637 60.0684 69.1406 60.6973 69.1406C61.416 69.1406 62.0918 69.2969 62.7246 69.6094C63.3574 69.918 63.8906 70.3438 64.3242 70.8867L63.9844 71.1387C63.5898 70.6504 63.1055 70.2656 62.5312 69.9844C61.9609 69.7031 61.3496 69.5625 60.6973 69.5625C60.127 69.5625 59.5801 69.6738 59.0566 69.8965C58.5371 70.1191 58.0879 70.4199 57.709 70.7988C57.334 71.1738 57.0352 71.623 56.8125 72.1465C56.5898 72.666 56.4785 73.2109 56.4785 73.7812C56.4785 74.3516 56.5898 74.8984 56.8125 75.4219C57.0352 75.9414 57.334 76.3906 57.709 76.7695C58.0879 77.1445 58.5371 77.4434 59.0566 77.666C59.5801 77.8887 60.127 78 60.6973 78C61.2246 78 61.7305 77.9062 62.2148 77.7188V77.2852C61.7266 77.4805 61.2207 77.5781 60.6973 77.5781C60.1816 77.5781 59.6895 77.4785 59.2207 77.2793C58.752 77.0762 58.3477 76.8066 58.0078 76.4707C57.6719 76.1309 57.4023 75.7266 57.1992 75.2578C57 74.7891 56.9004 74.2969 56.9004 73.7812C56.9004 73.2656 57 72.7734 57.1992 72.3047C57.4023 71.8359 57.6719 71.4336 58.0078 71.0977C58.3477 70.7578 58.752 70.4883 59.2207 70.2891C59.6895 70.0859 60.1816 69.9844 60.6973 69.9844C61.2871 69.9844 61.8398 70.1113 62.3555 70.3652C62.875 70.6191 63.3125 70.9688 63.668 71.4141L63.3398 71.6777C63.0234 71.2832 62.6348 70.9727 62.1738 70.7461C61.7129 70.5195 61.2207 70.4062 60.6973 70.4062C60.2402 70.4062 59.8027 70.4961 59.3848 70.6758C58.9707 70.8516 58.6113 71.0918 58.3066 71.3965C58.0059 71.6973 57.7656 72.0566 57.5859 72.4746C57.4102 72.8887 57.3223 73.3242 57.3223 73.7812C57.3223 74.2383 57.4102 74.6758 57.5859 75.0938C57.7656 75.5078 58.0059 75.8672 58.3066 76.1719C58.6113 76.4727 58.9707 76.7129 59.3848 76.8926C59.8027 77.0684 60.2402 77.1562 60.6973 77.1562C61.2363 77.1562 61.7422 77.0469 62.2148 76.8281V76.3945C61.7422 76.6211 61.2363 76.7344 60.6973 76.7344C60.1621 76.7344 59.668 76.6035 59.2148 76.3418C58.7617 76.0762 58.4023 75.7168 58.1367 75.2637C57.875 74.8105 57.7441 74.3164 57.7441 73.7812C57.7441 73.2461 57.875 72.752 58.1367 72.2988C58.4023 71.8457 58.7617 71.4883 59.2148 71.2266C59.668 70.9609 60.1621 70.8281 60.6973 70.8281C61.1543 70.8281 61.584 70.9277 61.9863 71.127C62.3926 71.3223 62.7324 71.5938 63.0059 71.9414L62.6719 72.1992C62.4375 71.9023 62.1465 71.6699 61.7988 71.502C61.4551 71.334 61.0879 71.25 60.6973 71.25C59.998 71.25 59.4004 71.498 58.9043 71.9941C58.4121 72.4902 58.166 73.0859 58.166 73.7812C58.166 74.4766 58.4121 75.0723 58.9043 75.5684C59.4004 76.0645 59.998 76.3125 60.6973 76.3125C61.2441 76.3125 61.75 76.1797 62.2148 75.9141V75.4863C61.7578 75.7559 61.252 75.8906 60.6973 75.8906C60.1152 75.8906 59.6172 75.6855 59.2031 75.2754C58.793 74.8613 58.5879 74.3633 58.5879 73.7812C58.5879 73.1992 58.793 72.7031 59.2031 72.293C59.6172 71.8789 60.1152 71.6719 60.6973 71.6719C61.0254 71.6719 61.334 71.7441 61.623 71.8887C61.9121 72.0293 62.1543 72.2227 62.3496 72.4688L62.0098 72.7266C61.6699 72.3047 61.2324 72.0938 60.6973 72.0938C60.2324 72.0938 59.834 72.2598 59.502 72.5918C59.1738 72.9199 59.0098 73.3164 59.0098 73.7812C59.0098 74.2461 59.1738 74.6445 59.502 74.9766C59.834 75.3047 60.2324 75.4688 60.6973 75.4688C61.2949 75.4688 61.8008 75.3027 62.2148 74.9707V73.7227ZM64.7461 73.7227H65.168V78H64.7461V73.7227ZM63.9023 73.7227H64.3242V78H63.9023V73.7227ZM63.0586 73.7227H63.4805V78H63.0586V73.7227ZM68.7363 69.5625H69.1582V78H68.7363V69.5625ZM67.8926 69.5625H68.3145V78H67.8926V69.5625ZM67.0488 69.5625H67.4707V78H67.0488V69.5625ZM66.2051 69.5625H66.627V78H66.2051V69.5625ZM76.3301 72.4688L75.9902 72.7266C75.6504 72.3047 75.2129 72.0938 74.6777 72.0938C74.2129 72.0938 73.8145 72.2598 73.4824 72.5918C73.1543 72.9199 72.9902 73.3164 72.9902 73.7812C72.9902 74.2461 73.1543 74.6445 73.4824 74.9766C73.8145 75.3047 74.2129 75.4688 74.6777 75.4688C74.9395 75.4688 75.1836 75.4121 75.4102 75.2988C75.6406 75.1855 75.8359 75.0293 75.9961 74.8301L76.3242 75.1055C76.1289 75.3516 75.8867 75.5449 75.5977 75.6855C75.3086 75.8223 75.002 75.8906 74.6777 75.8906C74.0957 75.8906 73.5977 75.6855 73.1836 75.2754C72.7734 74.8613 72.5684 74.3633 72.5684 73.7812C72.5684 73.1992 72.7734 72.7031 73.1836 72.293C73.5977 71.8789 74.0957 71.6719 74.6777 71.6719C75.0059 71.6719 75.3145 71.7441 75.6035 71.8887C75.8926 72.0293 76.1348 72.2227 76.3301 72.4688ZM76.9863 71.9414L76.6523 72.1992C76.418 71.9023 76.127 71.6699 75.7793 71.502C75.4355 71.334 75.0684 71.25 74.6777 71.25C73.9785 71.25 73.3809 71.498 72.8848 71.9941C72.3926 72.4902 72.1465 73.0859 72.1465 73.7812C72.1465 74.4766 72.3926 75.0723 72.8848 75.5684C73.3809 76.0645 73.9785 76.3125 74.6777 76.3125C75.0684 76.3125 75.4375 76.2285 75.7852 76.0605C76.1328 75.8887 76.4238 75.6543 76.6582 75.3574L76.9805 75.627C76.707 75.9707 76.3691 76.2422 75.9668 76.4414C75.5645 76.6367 75.1348 76.7344 74.6777 76.7344C74.1426 76.7344 73.6484 76.6035 73.1953 76.3418C72.7422 76.0762 72.3828 75.7168 72.1172 75.2637C71.8555 74.8105 71.7246 74.3164 71.7246 73.7812C71.7246 73.2461 71.8555 72.752 72.1172 72.2988C72.3828 71.8457 72.7422 71.4883 73.1953 71.2266C73.6484 70.9609 74.1426 70.8281 74.6777 70.8281C75.1348 70.8281 75.5645 70.9277 75.9668 71.127C76.373 71.3223 76.7129 71.5938 76.9863 71.9414ZM77.6484 71.4141L77.3203 71.6777C77.0039 71.2832 76.6152 70.9727 76.1543 70.7461C75.6934 70.5195 75.2012 70.4062 74.6777 70.4062C74.2207 70.4062 73.7832 70.4961 73.3652 70.6758C72.9512 70.8516 72.5918 71.0918 72.2871 71.3965C71.9863 71.6973 71.7461 72.0566 71.5664 72.4746C71.3906 72.8887 71.3027 73.3242 71.3027 73.7812C71.3027 74.2383 71.3906 74.6758 71.5664 75.0938C71.7461 75.5078 71.9863 75.8672 72.2871 76.1719C72.5918 76.4727 72.9512 76.7129 73.3652 76.8926C73.7832 77.0684 74.2207 77.1562 74.6777 77.1562C75.2012 77.1562 75.6934 77.043 76.1543 76.8164C76.6152 76.5898 77.0039 76.2793 77.3203 75.8848L77.6367 76.1602C77.2812 76.6016 76.8457 76.9492 76.3301 77.2031C75.8145 77.4531 75.2637 77.5781 74.6777 77.5781C74.1621 77.5781 73.6699 77.4785 73.2012 77.2793C72.7324 77.0762 72.3281 76.8066 71.9883 76.4707C71.6523 76.1309 71.3828 75.7266 71.1797 75.2578C70.9805 74.7891 70.8809 74.2969 70.8809 73.7812C70.8809 73.2656 70.9805 72.7734 71.1797 72.3047C71.3828 71.8359 71.6523 71.4336 71.9883 71.0977C72.3281 70.7578 72.7324 70.4883 73.2012 70.2891C73.6699 70.0859 74.1621 69.9844 74.6777 69.9844C75.2676 69.9844 75.8203 70.1113 76.3359 70.3652C76.8555 70.6191 77.293 70.9688 77.6484 71.4141ZM78.3047 70.8867L77.9648 71.1387C77.5703 70.6504 77.0859 70.2656 76.5117 69.9844C75.9414 69.7031 75.3301 69.5625 74.6777 69.5625C74.1074 69.5625 73.5605 69.6738 73.0371 69.8965C72.5176 70.1191 72.0684 70.4199 71.6895 70.7988C71.3145 71.1738 71.0156 71.623 70.793 72.1465C70.5703 72.666 70.459 73.2109 70.459 73.7812C70.459 74.3516 70.5703 74.8984 70.793 75.4219C71.0156 75.9414 71.3145 76.3906 71.6895 76.7695C72.0684 77.1445 72.5176 77.4434 73.0371 77.666C73.5605 77.8887 74.1074 78 74.6777 78C75.3301 78 75.9414 77.8594 76.5117 77.5781C77.0859 77.2969 77.5703 76.9121 77.9648 76.4238L78.2988 76.6816C77.8652 77.2207 77.332 77.6465 76.6992 77.959C76.0703 78.2676 75.3965 78.4219 74.6777 78.4219C74.0488 78.4219 73.4473 78.2988 72.873 78.0527C72.3027 77.8066 71.8105 77.4766 71.3965 77.0625C70.9824 76.6484 70.6523 76.1562 70.4062 75.5859C70.1602 75.0117 70.0371 74.4102 70.0371 73.7812C70.0371 73.1523 70.1602 72.5527 70.4062 71.9824C70.6523 71.4082 70.9824 70.9141 71.3965 70.5C71.8105 70.0859 72.3027 69.7559 72.873 69.5098C73.4473 69.2637 74.0488 69.1406 74.6777 69.1406C75.3965 69.1406 76.0723 69.2969 76.7051 69.6094C77.3379 69.918 77.8711 70.3438 78.3047 70.8867Z" fill="black"/>
</svg>
